<svg width="14px" height="14px" viewBox="0 0 14 14" version="1.1" xmlns="http://www.w3.org/2000/svg" xmlns:xlink="http://www.w3.org/1999/xlink">
    <defs>
        <path d="M19,12 C19,15.8668508 15.8657218,19 12,19 C8.13427823,19 5,15.8668508 5,12 C5,8.13540726 8.13427823,5 12,5 C15.8657218,5 19,8.13540726 19,12 Z M12.1878427,7.31451613 C10.649621,7.31451613 9.66854839,7.96249597 8.89815323,9.1141371 C8.79834677,9.26333871 8.8317379,9.46456048 8.97478629,9.57303226 L9.95419355,10.3156532 C10.1011089,10.4270605 10.3104315,10.4005565 10.4245766,10.2557581 C10.9288024,9.61621774 11.2745403,9.24535887 12.042,9.24535887 C12.618625,9.24535887 13.3318629,9.61647177 13.3318629,10.175625 C13.3318629,10.5983347 12.9829073,10.8154194 12.4135645,11.134625 C11.7495806,11.5068387 10.8709677,11.9701089 10.8709677,13.1290323 L10.8709677,13.2419355 C10.8709677,13.4289879 11.022625,13.5806452 11.2096774,13.5806452 L12.7903226,13.5806452 C12.977375,13.5806452 13.1290323,13.4289879 13.1290323,13.2419355 L13.1290323,13.2043105 C13.1290323,12.4009476 15.4770242,12.3675 15.4770242,10.1935484 C15.4770242,8.55639516 13.7788185,7.31451613 12.1878427,7.31451613 L12.1878427,7.31451613 Z M12,14.3145161 C11.2840524,14.3145161 10.7016129,14.8969556 10.7016129,15.6129032 C10.7016129,16.3288226 11.2840524,16.9112903 12,16.9112903 C12.7159476,16.9112903 13.2983871,16.3288226 13.2983871,15.6129032 C13.2983871,14.8969556 12.7159476,14.3145161 12,14.3145161 Z" id="path-1"></path>
    </defs>
    <g id="Symbols" stroke="none" stroke-width="1" fill="none" fill-rule="evenodd">
        <g id="icons/tooltips" transform="translate(-5.000000, -5.000000)">
            <mask id="mask-2" fill="white">
                <use xlink:href="#path-1"></use>
            </mask>
            <use id="Mask" fill="#81878D" fill-rule="nonzero" xlink:href="#path-1"></use>
        </g>
    </g>
</svg>
