<?xml version="1.0" encoding="UTF-8"?>
<svg width="16px" height="16px" viewBox="0 0 16 16" version="1.1" xmlns="http://www.w3.org/2000/svg" xmlns:xlink="http://www.w3.org/1999/xlink">
    <!-- Generator: Sketch 55.2 (78181) - https://sketchapp.com -->
    <title>Mask</title>
    <desc>Created with Sketch.</desc>
    <defs>
        <path d="M17.64,6.35 C16.19,4.9 14.2,4 11.99,4 C7.57,4 4,7.58 4,12 C4,16.42 7.57,20 11.99,20 C15.72,20 18.83,17.45 19.72,14 L17.64,14 C16.82,16.33 14.6,18 11.99,18 C8.68,18 5.99,15.31 5.99,12 C5.99,8.69 8.68,6 11.99,6 C13.65,6 15.13,6.69 16.21,7.78 L12.99,11 L19.99,11 L19.99,4 L17.64,6.35 Z" id="path-1"></path>
    </defs>
    <g id="Symbols" stroke="none" stroke-width="1" fill="none" fill-rule="evenodd">
        <g id="icons/refresh" transform="translate(-4.000000, -4.000000)">
            <mask id="mask-2" fill="white">
                <use xlink:href="#path-1"></use>
            </mask>
            <use id="Mask" fill="#81878D" fill-rule="nonzero" xlink:href="#path-1"></use>
        </g>
    </g>
</svg>