<?xml version="1.0" encoding="UTF-8"?>
<svg width="105px" height="42px" viewBox="0 0 105 42" version="1.1" xmlns="http://www.w3.org/2000/svg" xmlns:xlink="http://www.w3.org/1999/xlink">
    <!-- Generator: Sketch 55.2 (78181) - https://sketchapp.com -->
    <title>logo</title>
    <desc>Created with Sketch.</desc>
    <g id="Page-1" stroke="none" stroke-width="1" fill="none" fill-rule="evenodd">
        <g id="Verification-2.1" transform="translate(-32.000000, -14.000000)">
            <g id="logo" transform="translate(32.000000, 14.000000)">
                <path d="M57.9654336,20.8666667 L60.0539721,20.8666667 L60.0539721,25.5166667 C59.4426895,25.9944468 58.7295371,26.3611098 57.9144936,26.6166667 C57.0994501,26.8722235 56.2617791,27 55.4014554,27 C54.1902102,27 53.0978419,26.7416693 52.1243178,26.225 C51.1507936,25.7083308 50.3867018,24.994449 49.8320194,24.0833333 C49.277337,23.1722177 49,22.1444502 49,21 C49,19.8555498 49.277337,18.8277823 49.8320194,17.9166667 C50.3867018,17.005551 51.1536236,16.2916692 52.1328078,15.775 C53.111992,15.2583308 54.2128502,15 55.4354154,15 C56.4315797,15 57.33717,15.1611095 58.1522135,15.4833333 C58.967257,15.8055572 59.6521096,16.2777747 60.206792,16.9 L58.814433,18.2333333 C57.9088291,17.34444 56.8164608,16.9 55.5372953,16.9 C54.6996117,16.9 53.9553297,17.0722205 53.3044269,17.4166667 C52.6535241,17.7611128 52.1441296,18.2444413 51.776228,18.8666667 C51.4083264,19.488892 51.2243784,20.199996 51.2243784,21 C51.2243784,21.7777817 51.4083264,22.4777747 51.776228,23.1 C52.1441296,23.7222253 52.6535241,24.2111093 53.3044269,24.5666667 C53.9553297,24.922224 54.6939518,25.1 55.5203153,25.1 C56.4485593,25.1 57.2635906,24.900002 57.9654336,24.5 L57.9654336,20.8666667 Z M62.95755,15.1666667 L65.1649485,15.1666667 L65.1649485,26.8333333 L62.95755,26.8333333 L62.95755,15.1666667 Z M78.9357186,15.1666667 L78.9357186,26.8333333 L77.1188599,26.8333333 L70.5645846,18.9333333 L70.5645846,26.8333333 L68.3741662,26.8333333 L68.3741662,15.1666667 L70.1910249,15.1666667 L76.7453002,23.0666667 L76.7453002,15.1666667 L78.9357186,15.1666667 Z M89.8368708,24.1333333 L83.8938751,24.1333333 L82.7222559,26.8333333 L80.4469375,26.8333333 L85.7956337,15.1666667 L87.9690722,15.1666667 L93.3347483,26.8333333 L91.02547,26.8333333 L89.8368708,24.1333333 Z M89.1067314,22.4333333 L86.865373,17.3333333 L84.6409945,22.4333333 L89.1067314,22.4333333 Z M102.622802,26.8333333 L100.194663,23.4166667 C100.092783,23.4277778 99.9399646,23.4333333 99.7362038,23.4333333 L97.0533657,23.4333333 L97.0533657,26.8333333 L94.8459673,26.8333333 L94.8459673,15.1666667 L99.7362038,15.1666667 C100.766328,15.1666667 101.663429,15.3333317 102.427532,15.6666667 C103.191635,16.0000017 103.777439,16.4777747 104.184961,17.1 C104.592482,17.7222253 104.79624,18.4611068 104.79624,19.3166667 C104.79624,20.1944488 104.578332,20.9499968 104.142511,21.5833333 C103.706689,22.2166698 103.081265,22.6888873 102.266222,23 L105,26.8333333 L102.622802,26.8333333 Z M102.571862,19.3166667 C102.571862,18.5722185 102.322824,18 101.824742,17.6 C101.32666,17.199998 100.596528,17 99.6343238,17 L97.0533657,17 L97.0533657,21.65 L99.6343238,21.65 C100.596528,21.65 101.32666,21.4472243 101.824742,21.0416667 C102.322824,20.6361091 102.571862,20.0611148 102.571862,19.3166667 Z" id="GINAR" fill="#006E21" fill-rule="nonzero"></path>
                <g>
                    <circle id="background" fill="#006E21" cx="21" cy="21" r="21"></circle>
                    <path d="M17.3853839,29.4357496 C17.8762401,29.4357496 18.2852869,29.839374 18.2852869,30.3237232 L18.2852869,33.1329489 C18.2852869,33.6172982 17.8762401,34.0209226 17.3853839,34.0209226 C16.8781659,34.0209226 16.4854809,33.6172982 16.4854809,33.1329489 L16.4854809,30.3237232 C16.4854809,29.839374 16.8945277,29.4357496 17.3853839,29.4357496 Z M14.4238849,28.9191104 C13.9166669,28.9191104 13.5239819,28.515486 13.5239819,28.0149918 L13.5403438,24.5115321 C13.5403438,24.0271829 13.9493906,23.6397035 14.4402468,23.6397035 C14.4402468,23.6397035 14.4402468,23.6397035 14.4566087,23.6397035 C14.9474649,23.6397035 15.3565117,24.0433278 15.3401498,24.5438221 L15.3237879,28.0472817 C15.3237879,28.531631 14.9147411,28.9191104 14.4238849,28.9191104 Z M29.5586174,24.8021417 C30.0494736,24.8021417 30.4585204,25.1896211 30.4585204,25.6901153 L30.4748823,29.7102142 C30.4748823,30.1945634 30.0821973,30.5981878 29.5749793,30.5981878 C29.0841231,30.5981878 28.6750762,30.2107084 28.6750762,29.7102142 L28.6587144,25.6901153 C28.6587144,25.2057661 29.0513993,24.8021417 29.5586174,24.8021417 Z M26.2535191,18.4571664 L20.5268635,15.1151565 L16.3055003,17.5530478 L20.4941398,20.007084 L23.0956776,18.5540362 C23.5210863,18.3118616 24.07739,18.4571664 24.322818,18.8930807 C24.5682461,19.3128501 24.4209893,19.8617792 23.9792187,20.1039539 L20.9195485,21.8153213 C20.7886535,21.8960461 20.6413966,21.9283361 20.4777779,21.9283361 C20.3141592,21.9283361 20.1669023,21.8799012 20.0196455,21.7991763 L14.0802856,18.3280066 C13.8021338,18.1665568 13.638515,17.8759473 13.638515,17.5691928 C13.638515,17.2624382 13.8021338,16.9718287 14.0802856,16.8103789 L20.0687311,13.3392092 C20.3468829,13.1777595 20.7068441,13.1777595 20.984996,13.3392092 L27.1697839,16.9395387 C27.5951926,17.1817133 27.7424495,17.7306425 27.4806595,18.1504119 C27.2352314,18.5701812 26.6789278,18.715486 26.2535191,18.4571664 Z M26.7443752,20.1362438 C27.2352314,20.1362438 27.6442783,20.5398682 27.6279164,21.0403624 L27.5788308,24.4792422 C27.5788308,24.7859967 27.415212,25.0766063 27.1370602,25.238056 L21.0831672,28.7899506 C20.9195485,28.8545305 20.7722916,28.8868204 20.6086729,28.8868204 C20.2977973,28.8868204 20.0032836,28.7253707 19.8396649,28.4509061 C19.5778749,28.0311367 19.7251318,27.4822076 20.1505405,27.2400329 L25.7790247,23.946458 L25.8281104,21.0080725 C25.8281104,20.5237232 26.2371572,20.1200988 26.7443752,20.1362438 Z M17.0254227,9.78731466 C16.600014,9.54514003 16.4527572,8.99621087 16.6981853,8.57644152 C16.9436134,8.15667216 17.499917,8.01136738 17.9253257,8.25354201 L24.1101137,11.7247117 C24.5355224,11.9668863 24.6827793,12.5158155 24.4373512,12.9355848 C24.2573706,13.2261944 23.9628568,13.3714992 23.6519813,13.3714992 C23.5047244,13.3714992 23.3411057,13.3392092 23.2102107,13.2584843 L17.0254227,9.78731466 Z M22.0648796,9.09308072 C21.6394709,8.8509061 21.492214,8.30197694 21.7376421,7.88220758 C21.9830702,7.46243822 22.5393739,7.31713344 22.9647826,7.55930807 L25.4517873,8.94777595 C25.877196,9.18995058 26.0244528,9.73887974 25.7790247,10.1586491 C25.5990441,10.4331137 25.3045304,10.5945634 24.9936548,10.5945634 C24.846398,10.5945634 24.6827793,10.5622735 24.5518843,10.4815486 L22.0648796,9.09308072 Z M32.700097,15.7932455 C32.2092408,15.7932455 31.800194,15.3896211 31.800194,14.9052718 L31.800194,14.6146623 L31.538404,14.4693575 L29.9513023,13.5652389 C29.5258936,13.3230643 29.3786368,12.7741351 29.6240649,12.3543657 C29.869493,11.9345964 30.4257967,11.7892916 30.8512053,12.0314662 L32.438307,12.9355848 L33.1418676,13.3392092 C33.4200194,13.500659 33.6,13.7912685 33.6,14.0980231 L33.6,14.9052718 C33.6,15.3896211 33.1909532,15.7932455 32.700097,15.7932455 Z M32.700097,16.3744646 C33.1909532,16.3744646 33.6,16.778089 33.6,17.2624382 L33.6,19.0545305 C33.6,19.5550247 33.1909532,19.9425041 32.700097,19.9425041 C32.2092408,19.9425041 31.800194,19.5388797 31.800194,19.0545305 L31.800194,17.2624382 C31.800194,16.778089 32.2092408,16.3744646 32.700097,16.3744646 Z M32.700097,20.6205931 C33.1909532,20.6205931 33.6,21.0242175 33.6,21.5085667 L33.6,25.4802306 C33.6,25.9645799 33.1909532,26.3682043 32.700097,26.3682043 C32.2092408,26.3682043 31.800194,25.9645799 31.800194,25.4802306 L31.800194,21.5085667 C31.800194,21.0242175 32.2092408,20.6205931 32.700097,20.6205931 Z M27.1043364,13.484514 C27.5297451,13.7266886 27.677002,14.2756178 27.4315739,14.6953871 C27.2679552,14.9698517 26.9570796,15.1313015 26.646204,15.1313015 C26.4989471,15.1313015 26.3353284,15.0990115 26.2044334,15.0182867 L25.5008729,14.6146623 C25.0754642,14.3724876 24.9282073,13.8235585 25.1736354,13.4037891 C25.4190635,12.9840198 25.9753672,12.838715 26.4007759,13.0808896 L27.1043364,13.484514 Z M29.1004849,12.0799012 C28.9368662,12.3543657 28.6259906,12.5158155 28.315115,12.5158155 C28.1678582,12.5158155 28.0042395,12.4835255 27.8733445,12.4028007 L26.6789278,11.7247117 C26.2535191,11.4825371 26.1062622,10.9336079 26.3516903,10.5138386 C26.5971184,10.0940692 27.1534221,9.94876442 27.5788308,10.190939 L28.7732475,10.869028 C29.1986562,11.1112026 29.345913,11.6601318 29.1004849,12.0799012 Z M30.0167498,15.1313015 C30.2949017,15.2927512 30.4585204,15.5833608 30.4748823,15.8901153 L30.4748823,19.5873147 C30.4748823,20.0716639 30.0821973,20.4591433 29.5749793,20.4752883 C29.0841231,20.4752883 28.6750762,20.0878089 28.6750762,19.5873147 L28.6750762,16.4067545 L28.4132863,16.2614498 C27.9878776,16.0192751 27.8406207,15.470346 28.0860488,15.0505766 C28.3314769,14.6308072 28.8877806,14.4855025 29.3131893,14.7276771 L30.0167498,15.1313015 Z M29.5749793,21.4278418 C30.0658354,21.4278418 30.4748823,21.8153213 30.4748823,22.3158155 L30.4748823,23.1230643 C30.4748823,23.6235585 30.0658354,24.0110379 29.5749793,24.0110379 C29.0841231,24.0110379 28.6750762,23.6235585 28.6750762,23.1230643 L28.6750762,22.3158155 C28.6750762,21.8314662 29.0677612,21.4278418 29.5749793,21.4278418 Z M13.8839431,11.4179572 C13.4585344,11.1757825 13.3112776,10.6268534 13.5567057,10.207084 C13.8021338,9.78731466 14.3584374,9.64200988 14.7838461,9.88418451 L15.0129124,10.0133443 C15.438321,10.2555189 15.5855779,10.8044481 15.3401498,11.2242175 C15.1765311,11.498682 14.8820174,11.6601318 14.5711418,11.6601318 C14.4238849,11.6601318 14.2602662,11.6278418 14.1130093,11.547117 L13.8839431,11.4179572 Z M16.1418816,12.7257002 C15.7164729,12.4835255 15.569216,11.9345964 15.8146441,11.514827 C16.0600722,11.0950577 16.6163759,10.9497529 17.0417846,11.1919275 L18.4816294,12.0314662 C18.9070381,12.2736409 19.054295,12.82257 18.8088669,13.2423394 C18.6452481,13.516804 18.3507344,13.6782537 18.0398588,13.6782537 C17.892602,13.6782537 17.7289833,13.6459638 17.5817264,13.5652389 L16.1418816,12.7257002 Z M26.5316709,28.5639209 C27.0225271,28.5639209 27.4315739,28.9675453 27.4315739,29.4518946 L27.4315739,31.3892916 C27.4315739,31.8736409 27.038889,32.2772652 26.5316709,32.2772652 C26.0408147,32.2772652 25.6317679,31.8736409 25.6317679,31.3892916 L25.6317679,29.4518946 C25.6317679,28.9675453 26.0408147,28.5639209 26.5316709,28.5639209 Z M10.807911,13.1616145 C10.3825023,12.9194399 10.2352455,12.3705107 10.4806735,11.9507414 C10.7261016,11.530972 11.2824053,11.3856672 11.707814,11.6278418 L14.5547799,13.3069193 C14.9801886,13.5490939 15.1274455,14.0980231 14.8820174,14.5177924 C14.7183986,14.792257 14.4075231,14.9537068 14.0966475,14.9537068 C13.9493906,14.9537068 13.7857719,14.9214168 13.6548769,14.8406919 L10.807911,13.1616145 Z M23.55381,27.9988468 C24.0446662,27.9988468 24.453713,28.3863262 24.453713,28.8868204 L24.453713,30.8080725 C24.453713,31.3085667 24.0610281,31.6960461 23.55381,31.6960461 C23.0629538,31.6960461 22.653907,31.3085667 22.653907,30.8080725 L22.653907,28.8868204 C22.653907,28.4024712 23.046592,27.9988468 23.55381,27.9988468 Z M19.5287893,23.4136738 C19.5287893,22.9293245 19.9214742,22.5257002 20.4286923,22.5257002 C20.9195485,22.5257002 21.3285953,22.9131796 21.3285953,23.4136738 L21.3285953,25.3349259 C21.3285953,25.8354201 20.9359104,26.2228995 20.4286923,26.2228995 C19.9378361,26.2228995 19.5287893,25.8354201 19.5287893,25.3349259 L19.5287893,23.4136738 Z M7.81368826,14.8568369 C7.38827956,14.6146623 7.24102271,14.0657331 7.4864508,13.6459638 C7.7318789,13.2261944 8.28818258,13.0808896 8.71359127,13.3230643 L9.74438927,13.9042834 C10.169798,14.146458 10.3170548,14.6953871 10.0716267,15.1151565 C9.89164612,15.4057661 9.59713241,15.5510708 9.28625682,15.5510708 C9.13899997,15.5510708 8.97538124,15.5187809 8.84448625,15.438056 L7.81368826,14.8568369 Z M13.3276394,16.9556837 C13.1476588,17.2462932 12.8531451,17.391598 12.5422695,17.391598 C12.3950127,17.391598 12.231394,17.3593081 12.100499,17.2785832 L11.200596,16.778089 C10.7751873,16.5359143 10.6279304,15.9869852 10.8733585,15.5672158 C11.1187866,15.1474465 11.6750903,15.0021417 12.100499,15.2443163 L13.000402,15.7448105 C13.4258107,15.9869852 13.5730675,16.5359143 13.3276394,16.9556837 Z M20.4286923,31.8574959 C20.9195485,31.8574959 21.3285953,32.2611203 21.3285953,32.7454695 L21.3285953,34.8120264 C21.3285953,35.3125206 20.9195485,35.7 20.4286923,35.7 C19.9214742,35.7 19.5287893,35.2963756 19.5287893,34.8120264 L19.5287893,32.7454695 C19.5287893,32.2611203 19.9378361,31.8574959 20.4286923,31.8574959 Z M11.4623859,20.3138386 C11.3151291,20.3138386 11.1515103,20.2815486 11.0206154,20.2008237 L10.0225411,19.5873147 C9.59713241,19.34514 9.44987555,18.7962109 9.69530365,18.3764415 C9.94073174,17.9566722 10.4970354,17.8113674 10.9224441,18.053542 L11.9205184,18.6670511 C12.3459271,18.9092257 12.4931839,19.4581549 12.2477558,19.8779242 C12.0677752,20.1523888 11.7732615,20.3138386 11.4623859,20.3138386 Z M13.131297,21.298682 C12.7058883,21.0565074 12.5586314,20.5075783 12.8040595,20.0878089 C13.0494876,19.6680395 13.6057913,19.5227348 14.0312,19.7649094 L17.8435164,22.0252059 C18.2689251,22.2673806 18.4161819,22.8163097 18.1707538,23.2360791 C17.9907732,23.5105437 17.6962595,23.6719934 17.3853839,23.6719934 C17.2381271,23.6719934 17.0745083,23.6397035 16.9436134,23.5589786 L13.131297,21.298682 Z M17.3853839,26.4327842 C17.8762401,26.4327842 18.2852869,26.8364086 18.2852869,27.3207578 L18.2852869,28.1280066 C18.2852869,28.6123558 17.8762401,29.0159802 17.3853839,29.0159802 C16.8781659,29.0159802 16.4854809,28.6123558 16.4854809,28.1280066 L16.4854809,27.3207578 C16.4854809,26.8364086 16.8945277,26.4327842 17.3853839,26.4327842 Z M14.4402468,29.2904448 C14.931103,29.2904448 15.3401498,29.6940692 15.3401498,30.1784185 L15.3401498,31.4377265 C15.3401498,31.9220758 14.931103,32.3257002 14.4402468,32.3257002 C13.9330287,32.3257002 13.5403438,31.9220758 13.5403438,31.4377265 L13.5403438,30.1784185 C13.5403438,29.6940692 13.9493906,29.2904448 14.4402468,29.2904448 Z M7.84641201,21.7830313 C7.42100331,21.5408567 7.27374645,20.9919275 7.51917455,20.5721582 C7.76460264,20.1523888 8.32090632,20.007084 8.74631502,20.2492586 L10.5788448,21.2825371 C11.0042535,21.5247117 11.1515103,22.0736409 10.9060822,22.4934102 C10.7424635,22.7678748 10.4479498,22.9293245 10.1370742,22.9293245 C9.98981736,22.9293245 9.82619863,22.8970346 9.67894177,22.8163097 L7.84641201,21.7830313 Z M11.8059853,25.4317957 C12.100499,25.5932455 12.2804796,25.883855 12.2641177,26.2067545 L12.2641177,27.4660626 C12.2641177,27.9665568 11.8550709,28.3540362 11.3642147,28.3540362 C10.8569966,28.3540362 10.4643117,27.9504119 10.4643117,27.4660626 L10.4643117,26.7395387 L10.2188836,26.6103789 C10.2025217,26.6103789 10.2025217,26.5942339 10.1861598,26.5942339 L7.81368826,25.3349259 C7.38827956,25.0927512 7.22466083,24.5599671 7.45372706,24.1240527 C7.69915515,23.7042834 8.23909696,23.5428336 8.68086753,23.7688633 L11.3478528,25.1896211 C11.3478528,25.1896211 11.3642147,25.2057661 11.3805766,25.2057661 L11.8059853,25.4317957 Z M12.2641177,22.3803954 C12.7549739,22.3803954 13.1640207,22.7840198 13.1640207,23.268369 L13.1640207,23.3490939 C13.1640207,23.8495881 12.7549739,24.2370675 12.2641177,24.2370675 C11.7568996,24.2370675 11.3642147,23.8334432 11.3642147,23.3490939 L11.3642147,23.268369 C11.3642147,22.7840198 11.7732615,22.3803954 12.2641177,22.3803954 Z M26.5316709,27.9827018 C26.0346682,27.9827018 25.6317679,27.5851425 25.6317679,27.0947282 C25.6317679,26.6043139 26.0346682,26.2067545 26.5316709,26.2067545 C27.0286736,26.2067545 27.4315739,26.6043139 27.4315739,27.0947282 C27.4315739,27.5851425 27.0286736,27.9827018 26.5316709,27.9827018 Z M32.700097,28.8060956 C32.2030943,28.8060956 31.800194,28.4085362 31.800194,27.9181219 C31.800194,27.4277076 32.2030943,27.0301483 32.700097,27.0301483 C33.1970997,27.0301483 33.6,27.4277076 33.6,27.9181219 C33.6,28.4085362 33.1970997,28.8060956 32.700097,28.8060956 Z M20.4286923,8.07594728 C19.9316896,8.07594728 19.5287893,7.67838794 19.5287893,7.18797364 C19.5287893,6.69755934 19.9316896,6.3 20.4286923,6.3 C20.925695,6.3 21.3285953,6.69755934 21.3285953,7.18797364 C21.3285953,7.67838794 20.925695,8.07594728 20.4286923,8.07594728 Z M20.4286923,31.2601318 C19.9316896,31.2601318 19.5287893,30.8625725 19.5287893,30.3721582 C19.5287893,29.8817439 19.9316896,29.4841845 20.4286923,29.4841845 C20.925695,29.4841845 21.3285953,29.8817439 21.3285953,30.3721582 C21.3285953,30.8625725 20.925695,31.2601318 20.4286923,31.2601318 Z M17.3853839,26.0130148 C16.8883812,26.0130148 16.4854809,25.6154555 16.4854809,25.1250412 C16.4854809,24.6346269 16.8883812,24.2370675 17.3853839,24.2370675 C17.8823866,24.2370675 18.2852869,24.6346269 18.2852869,25.1250412 C18.2852869,25.6154555 17.8823866,26.0130148 17.3853839,26.0130148 Z M11.3642147,30.5820428 C10.867212,30.5820428 10.4643117,30.1844835 10.4643117,29.6940692 C10.4643117,29.2036549 10.867212,28.8060956 11.3642147,28.8060956 C11.8612174,28.8060956 12.2641177,29.2036549 12.2641177,29.6940692 C12.2641177,30.1844835 11.8612174,30.5820428 11.3642147,30.5820428 Z M8.30454445,18.5217463 C7.80754174,18.5217463 7.40464144,18.124187 7.40464144,17.6337727 C7.40464144,17.1433584 7.80754174,16.745799 8.30454445,16.745799 C8.80154716,16.745799 9.20444746,17.1433584 9.20444746,17.6337727 C9.20444746,18.124187 8.80154716,18.5217463 8.30454445,18.5217463 Z M23.55381,34.0209226 C23.0568073,34.0209226 22.653907,33.6233632 22.653907,33.1329489 C22.653907,32.6425346 23.0568073,32.2449753 23.55381,32.2449753 C24.0508127,32.2449753 24.453713,32.6425346 24.453713,33.1329489 C24.453713,33.6233632 24.0508127,34.0209226 23.55381,34.0209226 Z" id="logo-picto" fill="#FFFFFF" fill-rule="nonzero"></path>
                </g>
            </g>
        </g>
    </g>
</svg>