<?xml version="1.0" encoding="UTF-8"?>
<svg width="16px" height="16px" viewBox="0 0 16 16" version="1.1" xmlns="http://www.w3.org/2000/svg" xmlns:xlink="http://www.w3.org/1999/xlink">
    <!-- Generator: Sketch 55.2 (78181) - https://sketchapp.com -->
    <title>Mask</title>
    <desc>Created with Sketch.</desc>
    <defs>
        <path d="M13.4150216,12.0001668 L19.7068229,5.70810315 C20.0977257,5.31751756 20.0977257,4.68377494 19.7068229,4.29318935 C19.31592,3.90227022 18.6828709,3.90227022 18.2919681,4.29318935 L12.0001668,10.585253 L5.70803194,4.29318935 C5.3171291,3.90227022 4.68407996,3.90227022 4.29317713,4.29318935 C3.90227429,4.68377494 3.90227429,5.31751756 4.29317713,5.70810315 L10.585312,12.0001668 L4.29317713,18.2922304 C3.90227429,18.682816 3.90227429,19.3165586 4.29317713,19.7071442 C4.48862855,19.9022702 4.74478331,20 5.00060453,20 C5.25642576,20 5.51258052,19.9022702 5.70803194,19.7068106 L12.0001668,13.414747 L18.2919681,19.7068106 C18.4874195,19.9022702 18.7435742,20 18.9993955,20 C19.2552167,20 19.5113715,19.9022702 19.7068229,19.7068106 C20.0977257,19.3162251 20.0977257,18.6824824 19.7068229,18.2918969 L13.4150216,12.0001668 Z" id="path-1"></path>
    </defs>
    <g id="Symbols" stroke="none" stroke-width="1" fill="none" fill-rule="evenodd">
        <g id="icons/close" transform="translate(-4.000000, -4.000000)">
            <mask id="mask-2" fill="white">
                <use xlink:href="#path-1"></use>
            </mask>
            <use id="Mask" fill="#81878D" fill-rule="nonzero" xlink:href="#path-1"></use>
        </g>
    </g>
</svg>