<?xml version="1.0" encoding="UTF-8"?>
<svg width="14px" height="14px" viewBox="0 0 14 14" version="1.1" xmlns="http://www.w3.org/2000/svg" xmlns:xlink="http://www.w3.org/1999/xlink">
    <!-- Generator: Sketch 55.2 (78181) - https://sketchapp.com -->
    <title>Mask</title>
    <desc>Created with Sketch.</desc>
    <defs>
        <path d="M18.34375,14.6150244 L5.65625,14.6150244 C5.2940296,14.6155459 5.00052208,14.9087493 5,15.2705943 L5,18.3474196 C5.00182113,18.7082402 5.29505046,18.9998299 5.65625,19 L18.34375,19 C18.7049495,18.9998299 18.9981789,18.7082402 19,18.3474196 L19,15.2705943 C18.9994779,14.9087493 18.7059704,14.6155459 18.34375,14.6150244 Z M10.6875,16.9459394 L6.60416667,16.9459394 C6.36254209,16.9459394 6.16666667,16.750267 6.16666667,16.5088929 C6.16666667,16.2675187 6.36254209,16.0718463 6.60416667,16.0718463 L10.6875,16.0718463 C10.9291246,16.0718463 11.125,16.2675187 11.125,16.5088929 C11.125,16.750267 10.9291246,16.9459394 10.6875,16.9459394 Z M17.1041667,17.2373038 C16.701459,17.2373038 16.375,16.9111831 16.375,16.5088929 C16.375,16.1066026 16.701459,15.7804819 17.1041667,15.7804819 C17.5068743,15.7804819 17.8333333,16.1066026 17.8333333,16.5088929 C17.8331724,16.9111165 17.5068076,17.237143 17.1041667,17.2373038 Z M6.16666667,13.7409313 C5.84488819,13.7399983 5.58426724,13.4796475 5.58333333,13.1582025 L5.58333333,5.58272875 C5.58426724,5.26128378 5.84488819,5.00093294 6.16666667,5 L17.8333333,5 C18.1551118,5.00093294 18.4157328,5.26128378 18.4166667,5.58272875 L18.4166667,13.1582025 C18.4157328,13.4796475 18.1551118,13.7399983 17.8333333,13.7409313 L6.16666667,13.7409313 Z M6.75,6.1654575 L6.75,12.5754738 L17.25,12.5754738 L17.25,6.1654575 L6.75,6.1654575 Z" id="path-1"></path>
    </defs>
    <g id="Symbols" stroke="none" stroke-width="1" fill="none" fill-rule="evenodd">
        <g id="icons/computer" transform="translate(-5.000000, -5.000000)">
            <mask id="mask-2" fill="white">
                <use xlink:href="#path-1"></use>
            </mask>
            <use id="Mask" fill="#81878D" fill-rule="nonzero" xlink:href="#path-1"></use>
        </g>
    </g>
</svg>